<svg width="324" height="107" viewBox="0 0 324 107" fill="none" xmlns="http://www.w3.org/2000/svg">
<g clip-path="url(#clip0_80_18)">
<path d="M111.965 21.2959H101.406V30.5914H111.965V21.2959Z" fill="white"/>
<path d="M253.996 51.4736H229.932V62.0325H253.996V51.4736Z" fill="white"/>
<path d="M120.71 76.3031H113.13C106.669 76.3031 101.406 71.0466 101.406 64.5791V37.2949H111.965V64.5791C111.965 65.2206 112.488 65.7443 113.13 65.7443H120.71V76.3031Z" fill="white"/>
<path d="M269.208 21.2959H258.649V30.5914H269.208V21.2959Z" fill="white"/>
<path d="M98.5715 76.1915H90.9912C84.5236 76.1915 79.2671 70.935 79.2671 64.4674V21.2959H89.826V64.4674C89.826 65.109 90.3496 65.6327 90.9912 65.6327H98.5715V76.1915Z" fill="white"/>
<path d="M229.932 47.8603V37.3014H221.186V21.3027H210.627V64.5856C210.627 71.0466 215.884 76.3096 222.352 76.3096H229.932V65.7508H222.352C221.71 65.7508 221.186 65.2271 221.186 64.5856V47.8603H229.932Z" fill="white"/>
<path d="M278.222 76.3031H270.642C264.181 76.3031 258.918 71.0466 258.918 64.5791V37.2949H269.477V64.5791C269.477 65.2206 270.001 65.7443 270.642 65.7443H278.222V76.3031Z" fill="white"/>
<path d="M300.165 47.8603V37.3014H291.42V21.3027H280.861V64.5856C280.861 71.0466 286.117 76.3096 292.585 76.3096H300.165V65.7508H292.585C291.943 65.7508 291.42 65.2271 291.42 64.5856V47.8603H300.165Z" fill="white"/>
<path d="M188.646 35.8741C185.065 35.8741 181.733 37 178.931 38.9245V21.2959H168.359V76.2963H178.931V54.884C178.977 50.21 182.78 46.4329 187.461 46.4329C192.141 46.4329 195.997 50.2559 195.997 54.9691V76.2963H206.569V54.9691C206.569 44.4233 198.55 35.8675 188.652 35.8675L188.646 35.8741Z" fill="white"/>
<path d="M151.837 35.9201V39.6383C148.669 37.2752 144.813 35.8809 140.656 35.8809C129.927 35.8809 121.201 45.124 121.201 56.4814C121.201 67.8389 129.927 77.082 140.656 77.082C144.82 77.082 148.675 75.6877 151.837 73.3246V76.3096C151.837 81.8411 147.333 86.3448 141.802 86.3448C138.391 86.3448 135.203 84.5904 133.364 81.7363L125.351 88.6948C129.214 93.8139 135.315 96.9036 141.808 96.9036C153.166 96.9036 162.409 87.6605 162.409 76.303V35.9201H151.85H151.837ZM141.802 66.5166C136.27 66.5166 131.767 62.0129 131.767 56.4814C131.767 50.95 136.27 46.4463 141.802 46.4463C147.333 46.4463 151.837 50.95 151.837 56.4814C151.837 62.0129 147.333 66.5166 141.802 66.5166Z" fill="white"/>
<path d="M37.0575 48.8487V21.9901C37.0575 21.3224 36.2523 20.9885 35.781 21.4598L15.9136 41.3076V61.5744C15.9136 65.9341 19.946 69.9665 24.921 69.9665H37.0575V96.2687C37.0575 96.9364 37.8627 97.2703 38.334 96.7989L58.1818 76.9511V57.7776C58.1818 52.8419 54.1821 48.8422 49.2398 48.8422H37.0575V48.8487Z" fill="#794DFC"/>
</g>
<defs>
<clipPath id="clip0_80_18">
<rect width="324" height="106.351" fill="white" transform="translate(0 0.648438)"/>
</clipPath>
</defs>
</svg>
